<?xml version="1.0" standalone="no"?><!DOCTYPE svg PUBLIC "-//W3C//DTD SVG 1.1//EN" "http://www.w3.org/Graphics/SVG/1.1/DTD/svg11.dtd"><svg t="1680010091999" class="icon" viewBox="0 0 1024 1024" version="1.1" xmlns="http://www.w3.org/2000/svg" p-id="1540" xmlns:xlink="http://www.w3.org/1999/xlink" width="80" height="80"><path d="M468.48 83.2c-3.84 11.52-7.68 32-7.68 44.8 0 16.64-12.8 24.32-48.64 30.72-129.28 20.48-192 117.76-232.96 360.96-29.44 180.48-43.52 227.84-84.48 282.88-37.12 48.64-39.68 88.32-6.4 106.24 14.08 6.4 99.84 12.8 192 12.8 138.24 0 167.68 3.84 167.68 19.2 0 10.24 12.8 24.32 26.88 33.28 33.28 16.64 88.32-2.56 88.32-33.28 0-16.64 26.88-19.2 176.64-19.2 183.04 0 207.36-6.4 207.36-55.04 0-12.8-11.52-39.68-24.32-58.88-40.96-57.6-62.72-126.72-90.88-291.84-29.44-177.92-39.68-211.2-85.76-271.36-34.56-44.8-117.76-89.6-166.4-90.88-21.76 0-28.16-8.96-32-42.24-2.56-33.28-10.24-42.24-37.12-44.8-21.76-2.56-37.12 3.84-42.24 16.64z m161.28 193.28c52.48 26.88 74.24 81.92 107.52 266.24 15.36 92.16 38.4 192 48.64 221.44l19.2 55.04H207.36l23.04-67.84c12.8-35.84 35.84-138.24 49.92-225.28 37.12-213.76 55.04-244.48 161.28-271.36 48.64-12.8 143.36-1.28 188.16 21.76z"  ></path></svg>